<svg width="20" height="20" viewBox="0 0 20 20" fill="none" xmlns="http://www.w3.org/2000/svg">
<path d="M5.74041 17.5829L16.8604 10.8729C17.0372 10.7726 17.1841 10.6271 17.2864 10.4515C17.3887 10.2758 17.4425 10.0762 17.4425 9.87292C17.4425 9.66967 17.3887 9.47003 17.2864 9.29437C17.1841 9.11871 17.0372 8.97329 16.8604 8.87292L5.74041 2.16291C5.56493 2.05801 5.36466 2.0018 5.16023 2.00004C4.95579 1.99829 4.75457 2.05105 4.57731 2.15292C4.40005 2.25479 4.25316 2.40209 4.15176 2.57962C4.05035 2.75714 3.99812 2.95848 4.00042 3.16291V16.5829C3.99484 16.7886 4.04502 16.9919 4.14564 17.1714C4.24626 17.3508 4.39357 17.4997 4.57195 17.6022C4.75033 17.7048 4.95314 17.7571 5.15885 17.7537C5.36457 17.7503 5.56552 17.6913 5.74041 17.5829Z" fill="#F2F2F2"/>
</svg>
